<svg xmlns="http://www.w3.org/2000/svg" xmlns:xlink="http://www.w3.org/1999/xlink" width="70" height="70" viewBox="0 0 70 70">
    <defs>
        <path id="a" d="M22.922 1.187C6.354 5.745-3.381 22.873 1.179 39.439c4.56 16.57 21.687 26.304 38.254 21.744 16.568-4.56 26.302-21.686 21.743-38.254C57.376 9.123 44.852.064 31.196.064c-2.733 0-5.512.363-8.274 1.123z"/>
    </defs>
    <g fill="none" fill-rule="evenodd">
        <path fill="#FEFEFE" d="M35.31 39.604a4.733 4.733 0 1 1-.001-9.466 4.733 4.733 0 0 1 0 9.466M35 0C15.67 0 0 15.67 0 35s15.67 35 35 35 35-15.67 35-35S54.33 0 35 0"/>
        <g transform="translate(3.911 3.71)">
            <mask id="b" fill="#fff">
                <use xlink:href="#a"/>
            </mask>
            <path fill="#F37A20" d="M64.202 21.878l-28.054 7.72a5.02 5.02 0 0 1-3.735 6.49l7.735 28.11 33.187-9.132-9.133-33.188z" mask="url(#b)"/>
            <path fill="#49A942" d="M31.385 26.16a5.019 5.019 0 0 1 4.815 3.607l28.022-7.712-9.133-33.187-33.188 9.133 7.827 28.44a5.009 5.009 0 0 1 1.657-.281" mask="url(#b)"/>
            <path fill="#009CDB" d="M26.366 31.178a5.02 5.02 0 0 1 3.718-4.847L22.255-2.115-10.93 7.018l9.133 33.189 28.318-7.794c-.1-.395-.154-.809-.154-1.235" mask="url(#b)"/>
            <path fill="#ED2B74" d="M32.416 36.089a5.02 5.02 0 0 1-5.897-3.684L-2.13 40.289l9.134 33.188 33.188-9.133-7.776-28.255z" mask="url(#b)"/>
        </g>
        <path fill="#FEFEFE" d="M14.92 37.707a.737.737 0 0 0 .675-.903 13.662 13.662 0 0 1 3.514-12.47c.134-.14-.055-.35-.205-.229-3.28 2.675-5.287 6.823-5.045 11.354.028.524.085 1.037.17 1.541.072.427.458.73.89.707"/>
        <path fill="#FEFEFE" d="M12.43 37.807a.636.636 0 0 0 .591-.76 16.233 16.233 0 0 1-.287-2.29c-.246-4.572 1.452-8.813 4.368-11.92.142-.15-.07-.366-.225-.229-3.553 3.161-5.693 7.847-5.421 12.946.03.541.086 1.075.167 1.6.06.392.41.674.807.653M55.423 33.496a.733.733 0 0 1 .754.613c.09.54.148 1.093.171 1.655.197 4.547-1.85 8.687-5.153 11.335-.151.12-.338-.093-.203-.23a13.728 13.728 0 0 0 3.642-12.445.774.774 0 0 1 .728-.925l.06-.003z"/>
        <path fill="#FEFEFE" d="M57.861 33.396a.682.682 0 0 0-.637.81 16.24 16.24 0 0 1-4.43 14.382c-.129.132.054.335.195.215a16.252 16.252 0 0 0 5.606-14.795.713.713 0 0 0-.734-.612"/>
        <path fill="#010202" fill-opacity=".15" d="M35.351 39.694a4.744 4.744 0 1 1 0-9.488 4.744 4.744 0 0 1 0 9.488m0-16.728c-6.619 0-11.984 5.365-11.984 11.984s5.365 11.984 11.984 11.984S47.335 41.57 47.335 34.95 41.97 22.966 35.351 22.966"/>
        <path fill="#FEFEFE" d="M35.351 39.697a4.747 4.747 0 1 1 0-9.494 4.747 4.747 0 0 1 0 9.494m0-14.024a9.276 9.276 0 0 0-9.277 9.277 9.276 9.276 0 0 0 9.277 9.276 9.277 9.277 0 0 0 0-18.553"/>
    </g>
</svg>
